# xmcd
#
# Track frame offsets: 
#        150
#        15278
#        33693
#        52193
#        67720
#        86820
#        100345
#        114638
#        132450
#        154728
#
# Disc length: 2277 seconds
#
# Revision: 0
# Processed by: cddbd v1.5.1PL2 Copyright (c) Steve Scherf et al.
# Submitted via: ExactAudioCopy v0.95b3
#
DISCID=8208e30a
DTITLE=The Hard Travelers - Silver and Gold
DYEAR=1900
DGENRE=Country
TTITLE0=Simple Song
TTITLE1=Rock Me Grandpa
TTITLE2=Dream Within A Dream
TTITLE3=Down The Road
TTITLE4=I Have Spoken
TTITLE5=Blue Highways
TTITLE6=Close to Home
TTITLE7=People Trying To Live In Time
TTITLE8=Northern Lights
TTITLE9=Silver and Gold
EXTD=
EXTT0=
EXTT1=
EXTT2=
EXTT3=
EXTT4=
EXTT5=
EXTT6=
EXTT7=
EXTT8=
EXTT9=
PLAYORDER=
